<?xml version="1.0" encoding="UTF-8"?>
<svg version="1.1" xmlns="http://www.w3.org/2000/svg" width="1173" height="438">
<path d="M0 0 C387.09 0 774.18 0 1173 0 C1173 144.54 1173 289.08 1173 438 C785.91 438 398.82 438 0 438 C0 293.46 0 148.92 0 0 Z " fill="#FEF9F1" transform="translate(0,0)"/>
<path d="M0 0 C15.81262451 13.51833191 26.86880087 30.10986001 30.4375 50.8125 C30.68147821 54.9974657 30.66860922 59.18360747 30.6875 63.375 C30.7184375 65.05045898 30.7184375 65.05045898 30.75 66.75976562 C30.83376525 84.82164766 24.16868007 100.92606163 11.4375 113.8125 C-5.24161627 128.8946796 -23.1841709 133.89803556 -45.47460938 132.95605469 C-49.88610623 132.65273849 -53.55882471 131.64669607 -57.5625 129.8125 C-58.58472656 129.36003906 -59.60695313 128.90757812 -60.66015625 128.44140625 C-74.6411514 121.62260511 -84.06260675 110.9149152 -89.875 96.57421875 C-93.76113993 84.87531833 -94.91755907 70.8063328 -89.890625 59.265625 C-83.00983294 46.55639732 -73.57379872 36.70743246 -59.6875 31.9375 C-49.01354149 29.1609407 -38.70115016 30.69405191 -28.5625 34.8125 C-25.17506866 36.81034272 -22.37623506 39.07434047 -19.5625 41.8125 C-19.00046875 42.34746094 -18.4384375 42.88242188 -17.859375 43.43359375 C-10.40878036 51.27929568 -7.83705999 60.01379751 -8.04345703 70.60498047 C-8.52000807 80.14668625 -11.69706498 86.8738843 -18.2734375 93.83203125 C-26.04155486 100.55291094 -34.32441966 102.1831239 -44.30078125 102.09375 C-48.83817482 101.70250169 -51.85863776 100.37540238 -55.5625 97.8125 C-56.59375 97.1525 -57.625 96.4925 -58.6875 95.8125 C-63.91377427 91.10311 -66.94360198 84.3195888 -68.1484375 77.4921875 C-68.54265807 69.55145895 -66.71506886 63.88233936 -61.5625 57.8125 C-57.27476518 53.74538688 -52.34926483 50.92504371 -46.328125 50.74609375 C-42.23974158 50.9665458 -40.14117726 51.33026895 -36.9375 54 C-35.5625 56.8125 -35.5625 56.8125 -35.5 59.875 C-36.8543542 63.61939101 -38.13821208 64.80259187 -41.5625 66.8125 C-42.75875 66.9775 -43.955 67.1425 -45.1875 67.3125 C-48.55730129 67.50178445 -48.55730129 67.50178445 -50.5 69.5 C-51.91634124 72.58262506 -52.03411969 74.44378794 -51.5625 77.8125 C-49.92814595 80.84772895 -48.506947 83.09602297 -45.75 85.1875 C-40.95131348 86.55855329 -36.91019204 86.21778351 -32.375 84.25 C-28.33609142 81.98350567 -25.83763078 79.31154632 -24.5625 74.8125 C-23.79668052 68.25462051 -23.73111517 62.42274207 -27.5625 56.8125 C-28.119375 55.94625 -28.67625 55.08 -29.25 54.1875 C-34.64409274 48.64762097 -39.83166867 47.35999947 -47.375 47.1875 C-56.01591376 47.26348166 -62.48005857 49.73005857 -68.68359375 55.93359375 C-75.94892134 64.64896593 -77.53921776 72.56668024 -76.5625 83.8125 C-74.82080432 93.87079257 -69.70479117 102.84104766 -61.77734375 109.27734375 C-50.58899387 117.03223176 -39.05701389 118.24188655 -25.6875 116.3125 C-11.75146869 113.01852896 -0.06660647 104.99006247 7.75 93.0625 C15.54268401 78.82294369 17.18030434 61.9768207 13.04736328 46.22998047 C7.71881392 28.93032663 -3.46514534 15.21622736 -19.10546875 6.375 C-37.13732115 -3.01833707 -58.52507835 -3.71981481 -77.9765625 1.77734375 C-100.49573214 9.19219229 -118.71389927 24.60841676 -129.5625 45.8125 C-131.47639446 50.07526494 -133.08830666 54.37946471 -134.5625 58.8125 C-134.88476562 59.76125 -135.20703125 60.71 -135.5390625 61.6875 C-142.70017084 86.85176854 -136.3139736 115.51944446 -124.35546875 138.12890625 C-120.5228414 144.961164 -116.05250305 151.0086717 -110.60546875 156.6640625 C-108.5625 158.8125 -108.5625 158.8125 -106.69921875 161.25390625 C-104.15993996 164.29454172 -101.29850723 166.70379098 -98.1875 169.125 C-97.26928467 169.84067139 -97.26928467 169.84067139 -96.33251953 170.57080078 C-80.41783492 182.70305332 -59.31340658 192.85819869 -38.90600586 192.95776367 C-38.00994125 192.96414352 -37.11387665 192.97052338 -36.19065857 192.97709656 C-34.74856773 192.97876579 -34.74856773 192.97876579 -33.27734375 192.98046875 C-31.76099083 192.98546135 -31.76099083 192.98546135 -30.21400452 192.99055481 C-28.06804863 192.99561561 -25.92208489 192.9979634 -23.77612305 192.99780273 C-20.56349794 192.99995741 -17.35123478 193.01803269 -14.13867188 193.03710938 C-8.94003294 193.05525068 -3.74692798 193.0002012 1.4503479 192.88031006 C3.41606766 192.8356871 5.3821058 192.80317071 7.34823608 192.78375244 C17.8867 192.85795268 17.8867 192.85795268 27.21655273 188.72338867 C29.44476596 185.86797469 31.02473249 183.06003725 32.625 179.8125 C33.91089016 177.53076138 35.20006357 175.25087055 36.4921875 172.97265625 C37.13978472 171.78053804 37.78658966 170.58798911 38.43261719 169.39501953 C41.69364788 163.46424393 45.5039841 157.88103561 49.25 152.25 C50.67493943 150.07842695 52.09943245 147.90656089 53.5234375 145.734375 C63.78445907 130.17718278 74.18478534 115.06027882 86.9921875 101.46875 C89.44405005 98.8707847 89.44405005 98.8707847 91.53125 96.171875 C93.26200224 94.02971445 94.96349865 92.33102029 97.0625 90.5625 C99.28156434 88.67609247 101.46521164 86.78630266 103.58203125 84.78515625 C131.95784815 58.05291307 167.3653415 43.62901528 206.125 43.5 C206.920271 43.49704926 207.71554199 43.49409851 208.53491211 43.49105835 C229.20322387 43.47422175 249.78557904 45.01887017 270.39324951 46.45498657 C271.05447563 46.50104664 271.71570175 46.5471067 272.39696503 46.59456253 C273.73426486 46.68779738 275.07155025 46.78123979 276.40882111 46.87488937 C286.35309869 47.56902651 296.29736211 48.14654009 306.25390625 48.640625 C307.50883881 48.70404587 308.76377136 48.76746674 310.05673218 48.83280945 C314.8796387 49.07541813 319.70238266 49.31718214 324.52661133 49.53213501 C327.79055268 49.67781964 331.05336525 49.83945689 334.31640625 50.00390625 C335.27486954 50.04134949 336.23333282 50.07879272 337.22084045 50.11737061 C342.03021835 50.3737362 345.55933161 50.64864068 349.4375 53.8125 C350.94639469 56.83028937 350.93776276 58.43572637 350.4375 61.8125 C345.92486584 68.95617527 338.3830459 74.60777732 332.15917969 80.24804688 C329.40294668 82.75257624 326.67115859 85.28338963 323.9375 87.8125 C322.85429157 88.8126353 321.77095803 89.8126351 320.6875 90.8125 C320.15125 91.3075 319.615 91.8025 319.0625 92.3125 C297.125 112.5625 297.125 112.5625 275.1875 132.8125 C274.38300415 133.55512085 274.38300415 133.55512085 273.56225586 134.31274414 C272.47976129 135.31195738 271.39724179 136.31114362 270.31469727 137.31030273 C267.04640025 140.32692761 263.77899374 143.34451251 260.51245117 146.36303711 C258.87934246 147.87099033 257.24438162 149.37691765 255.609375 150.8828125 C253.56866534 152.76358805 251.53793571 154.65415328 249.515625 156.5546875 C237.1001499 168.13127915 224.39176246 178.67975393 209.4375 186.8125 C208.83035156 187.15087891 208.22320313 187.48925781 207.59765625 187.83789062 C199.25781804 192.44860456 190.66763795 196.00739775 181.6875 199.1875 C180.75357422 199.52144775 179.81964844 199.85539551 178.85742188 200.19946289 C164.7545962 205.01478996 150.06849857 205.95410865 135.25756836 205.97021484 C134.20988281 205.97529556 133.16219727 205.98037628 132.08276367 205.98561096 C129.82564539 205.99623529 127.56851711 206.00488592 125.3113842 206.01173019 C121.70082853 206.02369097 118.09038355 206.04319278 114.47987366 206.06484985 C104.2191252 206.12583454 93.95838649 206.17998616 83.69750977 206.21386719 C57.50541369 206.30501853 31.53211574 206.50440883 5.46020508 209.14013672 C-2.86649682 209.98178927 -11.13914056 210.27641955 -19.50439453 210.20361328 C-21.76001049 210.18696481 -24.01395433 210.2039993 -26.26953125 210.22265625 C-60.59557093 210.26957101 -93.11491053 197.52643544 -117.5625 173.3125 C-142.09019595 148.1627248 -154.0332473 116.53042195 -153.99658203 81.55175781 C-153.52081969 58.23593017 -145.63708062 36.63533449 -130.5625 18.8125 C-129.64597656 17.65427734 -129.64597656 17.65427734 -128.7109375 16.47265625 C-113.27517101 -2.21447382 -89.74375823 -14.21103225 -65.875 -16.97583008 C-41.48008962 -19.20876793 -19.63528156 -15.33240433 0 0 Z " fill="#ECB55D" transform="translate(821.5625,211.1875)"/>
<path d="M0 0 C0.66135956 0.00270905 1.32271912 0.00541809 2.00411987 0.00820923 C12.41074402 0.07285642 21.50857856 0.91547875 31.3125 4.4375 C32.96958984 4.98083984 32.96958984 4.98083984 34.66015625 5.53515625 C48.92382757 10.55039229 60.23996452 18.36042069 71.3125 28.4375 C71.96605469 28.99695313 72.61960937 29.55640625 73.29296875 30.1328125 C89.66955562 44.99232838 99.62299482 68.70595809 101.3125 90.4375 C102.76667389 125.44887482 95.13280732 156.28984105 72.3125 183.4375 C71.60996094 184.28054688 70.90742188 185.12359375 70.18359375 185.9921875 C65.92334218 190.94441731 61.42449651 195.37171908 56.3125 199.4375 C55.36246094 200.19804687 54.41242188 200.95859375 53.43359375 201.7421875 C29.39616341 220.26342942 0.13885197 228.11273196 -29.8125 227.75 C-31.43790601 227.74064718 -33.06331293 227.73145305 -34.6887207 227.72241211 C-47.84118743 227.60935366 -60.8454227 226.73236269 -73.90562057 225.17259121 C-80.5787171 224.42924731 -87.18131608 224.27997222 -93.89160156 224.26391602 C-95.07026291 224.257229 -96.24892426 224.25054199 -97.46330261 224.24365234 C-100.00752002 224.22967125 -102.55174945 224.21775555 -105.09598541 224.20770454 C-109.13327021 224.19118055 -113.17046636 224.16814158 -117.20770264 224.14280701 C-128.68155168 224.07203386 -140.15544229 224.01198115 -151.62939453 223.96069336 C-157.98161836 223.9322262 -164.33376667 223.89676312 -170.68591094 223.85403961 C-174.03524129 223.83185339 -177.38443589 223.81440778 -180.73383331 223.80359077 C-197.12210137 223.74989653 -212.78450049 223.69365282 -228.5625 218.75 C-229.40981689 218.48799805 -230.25713379 218.22599609 -231.13012695 217.95605469 C-250.91738314 211.66188288 -268.72608033 201.69973726 -284.6875 188.4375 C-285.57961182 187.69765869 -285.57961182 187.69765869 -286.48974609 186.94287109 C-292.54428524 181.89293227 -298.53866134 176.82167926 -304.00048828 171.12524414 C-305.734954 169.3900254 -307.53855429 167.79107536 -309.3984375 166.19140625 C-313.50653144 162.62019219 -317.48249647 158.92662441 -321.4375 155.1875 C-327.1743045 149.78639148 -332.9439645 144.42719752 -338.76171875 139.11328125 C-341.91294585 136.23131788 -345.0515404 133.3360485 -348.1875 130.4375 C-352.34587867 126.59505691 -356.51159086 122.76088392 -360.6875 118.9375 C-364.84145359 115.13375623 -368.98696574 111.32105737 -373.125 107.5 C-373.6622168 107.0040332 -374.19943359 106.50806641 -374.75292969 105.99707031 C-377.53133911 103.43123496 -380.30778669 100.86330673 -383.08203125 98.29296875 C-383.917948 97.5198938 -383.917948 97.5198938 -384.77075195 96.73120117 C-385.87169122 95.71153822 -386.97053197 94.68960422 -388.06713867 93.6652832 C-390.48225299 91.41936417 -392.90250634 89.26356229 -395.46875 87.1875 C-402.13681301 81.7855249 -402.13681301 81.7855249 -403.125 77.25 C-402.6875 73.4375 -402.6875 73.4375 -400.29418945 70.76635742 C-396.08019583 67.51913947 -391.70010136 67.5476528 -386.54296875 67.36328125 C-385.55340179 67.30919098 -384.56383484 67.25510071 -383.54428101 67.19937134 C-380.32187867 67.02804484 -377.09894331 66.88901208 -373.875 66.75 C-371.63847173 66.63651282 -369.40206066 66.52069283 -367.16577148 66.40258789 C-362.71546249 66.1700562 -358.26484003 65.94866868 -353.81347656 65.73730469 C-345.95385489 65.36000648 -338.10282036 64.87101381 -330.25 64.375 C-327.63675671 64.21941318 -325.02347571 64.06445844 -322.41015625 63.91015625 C-317.81155677 63.63497643 -313.21535663 63.33932104 -308.61997986 63.01579285 C-293.04015798 61.9221665 -277.48051077 61.20507661 -261.86010742 61.08502197 C-260.11410774 61.07030849 -258.36814696 61.04922363 -256.62231445 61.02093506 C-244.45123677 60.84079646 -233.43421915 62.23918203 -221.6875 65.4375 C-220.28226074 65.81479248 -220.28226074 65.81479248 -218.84863281 66.19970703 C-216.72989958 66.80898941 -214.64704962 67.47079787 -212.5625 68.1875 C-211.82862061 68.43717529 -211.09474121 68.68685059 -210.33862305 68.9440918 C-202.42441093 71.73749319 -195.02328895 75.3824853 -187.6875 79.4375 C-186.73447998 79.96150391 -186.73447998 79.96150391 -185.76220703 80.49609375 C-150.79102229 99.97507041 -126.09268534 131.38526578 -104.6875 164.4375 C-104.23455566 165.13407715 -103.78161133 165.8306543 -103.31494141 166.54833984 C-101.05689294 170.02107386 -98.80628194 173.49850103 -96.5625 176.98046875 C-93.30388382 182.03658705 -90.02780233 187.08130528 -86.75 192.125 C-86.20609619 192.96272949 -85.66219238 193.80045898 -85.10180664 194.66357422 C-84.58481201 195.45908691 -84.06781738 196.25459961 -83.53515625 197.07421875 C-83.04805176 197.82493652 -82.56094727 198.5756543 -82.05908203 199.34912109 C-80.83315727 201.21572138 -79.57571646 203.05584113 -78.30859375 204.89453125 C-76.6875 207.4375 -76.6875 207.4375 -76.6875 209.4375 C-63.90778059 210.3772656 -51.16141719 210.65433069 -38.34887695 210.67773438 C-35.12620765 210.68749634 -31.90416301 210.71866822 -28.68164062 210.75 C-1.53090994 210.88894509 25.41600496 204.88267543 46.3125 186.4375 C47.1065625 185.77363281 47.900625 185.10976563 48.71875 184.42578125 C69.38222169 166.66412426 82.90549828 140.70526675 85.3125 113.4375 C86.70833668 87.7952859 82.3165666 66.94867843 66.3125 46.4375 C65.84457031 45.81746094 65.37664062 45.19742188 64.89453125 44.55859375 C52.89536763 29.5344309 33.60124283 20.39777606 15.00390625 16.796875 C1.35260014 15.46785896 -12.95132511 14.75835769 -25.6875 20.4375 C-26.54859375 20.79972656 -27.4096875 21.16195312 -28.296875 21.53515625 C-45.04656236 29.20776148 -56.17056081 42.2860086 -63.234375 59.125 C-67.73828151 71.32690999 -69.07192805 85.96928274 -64.6875 98.4375 C-64.3575 99.38882813 -64.0275 100.34015625 -63.6875 101.3203125 C-58.29395387 115.4783711 -49.19505426 124.57138281 -35.71484375 131.17578125 C-25.19316819 135.5609441 -10.83855762 136.89401923 0.0625 132.8125 C10.53196077 127.55016998 18.48191932 119.87719322 22.5859375 108.83203125 C25.33265111 99.77969018 26.17740651 89.02045543 21.63671875 80.46484375 C16.51016159 72.61622085 11.16314936 68.38771645 2.3125 65.4375 C-5.54632874 64.77788608 -13.06996647 64.30563824 -19.8828125 68.8046875 C-24.25426663 72.75981267 -27.35891041 78.00616281 -27.92578125 83.92578125 C-28.08498922 89.98406353 -27.9293563 93.73706464 -23.6875 98.4375 C-19.23581361 102.45487553 -15.83789453 103.84174645 -9.7578125 103.796875 C-6.0641429 103.15570971 -4.26531045 101.07818388 -1.6875 98.4375 C-0.12975064 95.32200128 -0.12269378 91.8330612 -0.6875 88.4375 C-2.25674111 86.28227645 -3.26434851 85.5532534 -5.84375 84.84765625 C-6.6171875 84.73292969 -7.390625 84.61820312 -8.1875 84.5 C-12.43691589 83.65011682 -12.43691589 83.65011682 -14.75 81.6875 C-16.02879749 78.61838602 -16.22595078 76.73551106 -15.6875 73.4375 C-13.17152747 69.93038678 -11.71995417 68.61619399 -7.4375 67.875 C0.48723242 69.06370986 7.6405014 72.63301585 12.56640625 79.078125 C16.54412679 85.67532005 16.26123525 93.38040229 14.875 100.76953125 C12.80071172 107.34243224 8.48041127 112.57109864 2.57421875 116.05078125 C-6.29477514 120.13442954 -13.9831293 120.83103222 -23.3125 117.9375 C-31.82276028 114.47260831 -37.57000885 108.67106826 -41.8125 100.61328125 C-45.07916361 92.49037219 -45.13703939 81.26194056 -42.125 73.0625 C-37.46345257 63.26837769 -30.2658414 55.70423354 -20.22265625 51.375 C-18.05774354 50.62574569 -15.90886379 49.99395385 -13.6875 49.4375 C-12.8625 49.210625 -12.0375 48.98375 -11.1875 48.75 C-4.3716206 47.89801507 1.78226082 48.32189817 8.3125 50.4375 C9.46878906 50.78748047 9.46878906 50.78748047 10.6484375 51.14453125 C22.4684574 55.22747188 30.65277342 63.47177976 36.3125 74.4375 C36.745625 75.24316406 37.17875 76.04882812 37.625 76.87890625 C42.59741707 87.91145663 41.77433138 101.98487924 38.375 113.375 C32.47251587 128.69811559 22.20017126 139.59508685 7.3125 146.4375 C-5.5120618 152.10416684 -22.34037288 152.71540743 -35.796875 148.6015625 C-46.55501836 144.26922909 -55.54925506 138.80661714 -63.6875 130.4375 C-64.74710937 129.40882813 -64.74710937 129.40882813 -65.828125 128.359375 C-79.35454267 114.41993694 -83 96.30339066 -83 77.57739258 C-82.67984819 56.62745883 -72.57145397 37.73448239 -58.21484375 22.87890625 C-42.02918098 7.66797436 -22.06517892 -0.17422446 0 0 Z " fill="#ECB55D" transform="translate(407.6875,193.5625)"/>
<path d="M0 0 C2.73039708 1.62347934 3.73359754 3.00040139 4.55175781 6.0703125 C5.72863596 12.23467637 6.64697735 18.40018927 7.4375 24.625 C8.47179 32.49101294 9.72302661 40.24656282 11.2578125 48.03125 C11.94924189 51.60872361 12.49368108 55.19896742 13.02172852 58.80371094 C18.13679019 93.31888867 29.09142059 128.42547996 51.8828125 155.4375 C53.69414114 157.6298092 55.32220421 159.85125298 56.9375 162.1875 C61.88033171 168.85489113 69.0459728 173.32863589 75.75 178.0625 C82.53052914 182.95901752 87.41731339 188.42123986 91 196 C91.48176359 200.78409028 90.65444786 203.25952602 87.96875 207.19921875 C87.32679688 208.1536084 86.68484375 209.10799805 86.0234375 210.09130859 C85.35570312 211.05117676 84.68796875 212.01104492 84 213 C83.39414062 213.8863916 82.78828125 214.7727832 82.1640625 215.68603516 C80.29241784 218.40664739 78.39889854 221.11084974 76.5 223.8125 C71.01494124 231.65571727 65.57017364 239.52363864 60.1875 247.4375 C59.56584961 248.35136475 58.94419922 249.26522949 58.30371094 250.20678711 C57.0981244 251.97915298 55.89255731 253.75153206 54.68701172 255.52392578 C50.91417108 261.06142936 47.11135915 266.5783575 43.31054688 272.09667969 C41.50065314 274.72520642 39.6927844 277.35512299 37.88500977 279.98510742 C36.96115709 281.3291152 36.03716604 282.67302787 35.11303711 284.0168457 C32.88198529 287.26118823 30.65222874 290.50640196 28.42578125 293.75390625 C26.16924824 297.04431235 23.90731088 300.33095547 21.64257812 303.61572266 C20.43422827 305.36969779 19.22742258 307.12473697 18.02148438 308.88037109 C15.87272004 312.00651792 13.71807399 315.12854572 11.5625 318.25 C10.87583252 319.2510376 10.18916504 320.2520752 9.48168945 321.28344727 C8.829021 322.22631592 8.17635254 323.16918457 7.50390625 324.140625 C6.92455322 324.98141602 6.3452002 325.82220703 5.74829102 326.68847656 C1.15216381 332.76529996 1.15216381 332.76529996 -3.375 333.6875 C-9.14839126 332.59254649 -11.62972561 327.9589541 -14.85205078 323.35229492 C-16.88486953 320.33407503 -18.8854265 317.2968897 -20.875 314.25 C-25.44780072 307.27185323 -30.10729237 300.40684096 -35.04882812 293.68408203 C-38.23856293 289.2962011 -41.27237738 284.80473015 -44.3125 280.3125 C-45.62605847 278.37874075 -46.93986217 276.44514805 -48.25390625 274.51171875 C-48.89086426 273.57376465 -49.52782227 272.63581055 -50.18408203 271.66943359 C-52.6940811 267.97968772 -55.21935407 264.30060496 -57.75 260.625 C-58.18803955 259.98860596 -58.6260791 259.35221191 -59.07739258 258.6965332 C-59.9479539 257.43204248 -60.81863933 256.16763718 -61.68945312 254.90332031 C-63.9615506 251.60353046 -66.23059602 248.30164258 -68.5 245 C-73.26113336 238.07366281 -73.26113336 238.07366281 -78.02636719 231.15014648 C-78.92287542 229.84547058 -79.81677445 228.53899777 -80.70800781 227.23071289 C-83.28850248 223.44922456 -85.92280553 219.71702691 -88.6171875 216.015625 C-89.22127441 215.17104736 -89.82536133 214.32646973 -90.44775391 213.45629883 C-91.62434477 211.8119087 -92.81616418 210.17827928 -94.02490234 208.55737305 C-96.68177981 204.80811667 -98 202.8965618 -98 198.19921875 C-95.92334924 191.55555869 -92.14571489 186.65564681 -87 182 C-86.51015625 181.55269531 -86.0203125 181.10539063 -85.515625 180.64453125 C-82.05202339 177.56852315 -78.43009986 174.89124948 -74.625 172.25 C-68.88764478 168.09724765 -64.44672323 163.49258083 -60 158 C-59.53980469 157.43812988 -59.07960938 156.87625977 -58.60546875 156.29736328 C-27.31573969 117.73215302 -19.09713675 66.43798566 -13.29199219 18.46508789 C-13.07784668 16.72666626 -13.07784668 16.72666626 -12.859375 14.953125 C-12.74045898 13.94411133 -12.62154297 12.93509766 -12.49902344 11.89550781 C-11.8372016 8.05538699 -10.90997242 4.43679856 -8.8125 1.125 C-5.81626183 -0.73473403 -3.42524311 -0.42064389 0 0 Z " fill="#FFF9F0" transform="translate(592,10)"/>
<path d="M0 0 C2.73039708 1.62347934 3.73359754 3.00040139 4.55175781 6.0703125 C5.72863596 12.23467637 6.64697735 18.40018927 7.4375 24.625 C8.47179 32.49101294 9.72302661 40.24656282 11.2578125 48.03125 C11.94924189 51.60872361 12.49368108 55.19896742 13.02172852 58.80371094 C18.13679019 93.31888867 29.09142059 128.42547996 51.8828125 155.4375 C53.69414114 157.6298092 55.32220421 159.85125298 56.9375 162.1875 C61.88033171 168.85489113 69.0459728 173.32863589 75.75 178.0625 C82.53052914 182.95901752 87.41731339 188.42123986 91 196 C91.48176359 200.78409028 90.65444786 203.25952602 87.96875 207.19921875 C87.32679688 208.1536084 86.68484375 209.10799805 86.0234375 210.09130859 C85.35570312 211.05117676 84.68796875 212.01104492 84 213 C83.39414062 213.8863916 82.78828125 214.7727832 82.1640625 215.68603516 C80.29241784 218.40664739 78.39889854 221.11084974 76.5 223.8125 C71.01494124 231.65571727 65.57017364 239.52363864 60.1875 247.4375 C59.56584961 248.35136475 58.94419922 249.26522949 58.30371094 250.20678711 C57.0981244 251.97915298 55.89255731 253.75153206 54.68701172 255.52392578 C50.91417108 261.06142936 47.11135915 266.5783575 43.31054688 272.09667969 C41.50065314 274.72520642 39.6927844 277.35512299 37.88500977 279.98510742 C36.96115709 281.3291152 36.03716604 282.67302787 35.11303711 284.0168457 C32.88198529 287.26118823 30.65222874 290.50640196 28.42578125 293.75390625 C26.16924824 297.04431235 23.90731088 300.33095547 21.64257812 303.61572266 C20.43422827 305.36969779 19.22742258 307.12473697 18.02148438 308.88037109 C15.87272004 312.00651792 13.71807399 315.12854572 11.5625 318.25 C10.87583252 319.2510376 10.18916504 320.2520752 9.48168945 321.28344727 C8.829021 322.22631592 8.17635254 323.16918457 7.50390625 324.140625 C6.92455322 324.98141602 6.3452002 325.82220703 5.74829102 326.68847656 C1.15216381 332.76529996 1.15216381 332.76529996 -3.375 333.6875 C-9.14839126 332.59254649 -11.62972561 327.9589541 -14.85205078 323.35229492 C-16.88486953 320.33407503 -18.8854265 317.2968897 -20.875 314.25 C-25.44780072 307.27185323 -30.10729237 300.40684096 -35.04882812 293.68408203 C-38.23856293 289.2962011 -41.27237738 284.80473015 -44.3125 280.3125 C-45.62605847 278.37874075 -46.93986217 276.44514805 -48.25390625 274.51171875 C-48.89086426 273.57376465 -49.52782227 272.63581055 -50.18408203 271.66943359 C-52.6940811 267.97968772 -55.21935407 264.30060496 -57.75 260.625 C-58.18803955 259.98860596 -58.6260791 259.35221191 -59.07739258 258.6965332 C-59.9479539 257.43204248 -60.81863933 256.16763718 -61.68945312 254.90332031 C-63.9615506 251.60353046 -66.23059602 248.30164258 -68.5 245 C-73.26113336 238.07366281 -73.26113336 238.07366281 -78.02636719 231.15014648 C-78.92287542 229.84547058 -79.81677445 228.53899777 -80.70800781 227.23071289 C-83.28850248 223.44922456 -85.92280553 219.71702691 -88.6171875 216.015625 C-89.22127441 215.17104736 -89.82536133 214.32646973 -90.44775391 213.45629883 C-91.62434477 211.8119087 -92.81616418 210.17827928 -94.02490234 208.55737305 C-96.68177981 204.80811667 -98 202.8965618 -98 198.19921875 C-95.92334924 191.55555869 -92.14571489 186.65564681 -87 182 C-86.51015625 181.55269531 -86.0203125 181.10539063 -85.515625 180.64453125 C-82.05202339 177.56852315 -78.43009986 174.89124948 -74.625 172.25 C-68.88764478 168.09724765 -64.44672323 163.49258083 -60 158 C-59.53980469 157.43812988 -59.07960938 156.87625977 -58.60546875 156.29736328 C-27.31573969 117.73215302 -19.09713675 66.43798566 -13.29199219 18.46508789 C-13.07784668 16.72666626 -13.07784668 16.72666626 -12.859375 14.953125 C-12.74045898 13.94411133 -12.62154297 12.93509766 -12.49902344 11.89550781 C-11.8372016 8.05538699 -10.90997242 4.43679856 -8.8125 1.125 C-5.81626183 -0.73473403 -3.42524311 -0.42064389 0 0 Z M-4 58 C-4.18006592 59.02432129 -4.18006592 59.02432129 -4.36376953 60.06933594 C-7.03179669 75.05345837 -10.19892378 89.55576154 -15 104 C-15.26538574 104.82161621 -15.53077148 105.64323242 -15.80419922 106.48974609 C-26.1460313 138.41775726 -43.58235271 170.37720088 -72.12866211 189.46435547 C-75.76849116 191.93257452 -78.43441857 194.4271903 -81 198 C-79.67582799 201.63794594 -78.06606326 204.58974617 -75.83203125 207.74609375 C-75.19394531 208.65423828 -74.55585937 209.56238281 -73.8984375 210.49804688 C-73.21007812 211.46806641 -72.52171875 212.43808594 -71.8125 213.4375 C-70.34933696 215.51888238 -68.88711936 217.60092967 -67.42578125 219.68359375 C-66.68408691 220.7391748 -65.94239258 221.79475586 -65.17822266 222.88232422 C-61.9101872 227.55984191 -58.70323683 232.27797601 -55.5 237 C-50.38131029 244.53399341 -45.21173373 252.03007948 -40 259.5 C-34.68622947 267.11702879 -29.4132319 274.75978634 -24.1875 282.4375 C-23.57100586 283.34282471 -22.95451172 284.24814941 -22.31933594 285.1809082 C-19.98721077 288.60695871 -17.65587216 292.03353223 -15.32861328 295.46289062 C-13.80529832 297.70641074 -12.27808273 299.94722573 -10.75 302.1875 C-10.08713989 303.16771118 -10.08713989 303.16771118 -9.41088867 304.16772461 C-7.4653719 307.01412107 -5.58123518 309.69532573 -3 312 C3.726369 302.95699636 10.05961999 293.65781439 16.40234375 284.34423828 C18.69876741 280.97469977 21.00332878 277.61081262 23.3125 274.25 C23.96617554 273.29855103 23.96617554 273.29855103 24.63305664 272.32788086 C28.64817958 266.49361762 32.70008433 260.68513834 36.75 254.875 C43.99764948 244.47458855 51.14820611 234.01032031 58.27783203 223.52880859 C60.92711691 219.63863384 63.58611721 215.75518941 66.25 211.875 C66.69190674 211.22990479 67.13381348 210.58480957 67.58911133 209.92016602 C69.26569473 207.48044811 70.90381762 205.10951859 72.859375 202.8828125 C74.22725721 201.0085676 74.22725721 201.0085676 73.9296875 198.48828125 C72.80926056 195.4894915 71.56280535 194.24792267 69.125 192.1875 C68.3103125 191.49527344 67.495625 190.80304688 66.65625 190.08984375 C64.04246954 188.03341354 61.36044204 186.14044199 58.625 184.25 C52.16937404 179.61450191 47.07117344 174.05422177 42 168 C41.49210937 167.40638672 40.98421875 166.81277344 40.4609375 166.20117188 C26.08028621 149.21712682 16.19434374 129.26082642 9.640625 108.06591797 C9.08894401 106.28683088 8.50100691 104.51905979 7.90625 102.75390625 C3.12224448 88.2282766 -0.12220273 73.00923727 -3 58 C-3.33 58 -3.66 58 -4 58 Z " fill="#FFBB5B" transform="translate(592,10)"/>
<path d="M0 0 C-3.84046637 4.71828725 -7.97733017 8.99403698 -12.3125 13.25 C-17.18717459 18.05366745 -21.63315073 23.01826123 -25.890625 28.38671875 C-28.01019113 31.01262568 -30.22442801 33.50864102 -32.5 36 C-35.61458668 39.41739372 -38.5918662 42.9052235 -41.5 46.5 C-44.4081338 50.0947765 -47.38541332 53.58260628 -50.5 57 C-54.49175961 61.38256125 -58.26886921 65.9057198 -61.98046875 70.52734375 C-63.61630633 72.53021645 -65.30650835 74.4180076 -67.0625 76.3125 C-69.20232439 78.889396 -69.20232439 78.889396 -69.625 82.125 C-68.77789251 86.02169446 -67.29161818 86.83135178 -64 89 C-60.88503499 89.84090607 -60.88503499 89.84090607 -57.4609375 90.125 C-56.17243896 90.27195312 -54.88394043 90.41890625 -53.55639648 90.5703125 C-52.87551971 90.64024414 -52.19464294 90.71017578 -51.49313354 90.78222656 C-48.60292472 91.07938002 -45.71731254 91.4132066 -42.83097839 91.74560547 C-41.35381291 91.91565182 -39.87644365 92.08393708 -38.39888 92.25048828 C-31.72016224 93.00924682 -25.08041045 93.97500498 -18.4375 95 C-3.65735724 97.25438915 11.16643462 99.13625338 26 101 C23.66904981 103.41785942 21.44340158 105.53922883 18.6015625 107.33203125 C17.96476562 107.73454102 17.32796875 108.13705078 16.671875 108.55175781 C15.99640625 108.96780273 15.3209375 109.38384766 14.625 109.8125 C13.91601562 110.25045898 13.20703125 110.68841797 12.4765625 111.13964844 C-14.07906436 127.32198355 -39.56456692 132.68228126 -70.45703125 132.390625 C-72.82597876 132.38314154 -75.19493257 132.37745861 -77.56388855 132.37347412 C-83.72380422 132.35838333 -89.88332753 132.31924905 -96.04309082 132.2746582 C-102.35875139 132.23334328 -108.6744769 132.21538664 -114.99023438 132.1953125 C-127.32699295 132.15273485 -139.66346354 132.08469051 -152 132 C-150.77027612 128.85103592 -149.54265072 126.07268564 -147.63671875 123.27734375 C-146.93458252 122.23767456 -146.93458252 122.23767456 -146.21826172 121.17700195 C-145.71311035 120.43796631 -145.20795898 119.69893066 -144.6875 118.9375 C-143.59917447 117.32625381 -142.51197543 115.71424627 -141.42578125 114.1015625 C-140.86197754 113.2652832 -140.29817383 112.42900391 -139.71728516 111.56738281 C-136.89251436 107.3442822 -134.13485943 103.07818467 -131.375 98.8125 C-129.251409 95.54075036 -127.12592591 92.27023282 -125 89 C-124.31526611 87.94522461 -124.31526611 87.94522461 -123.61669922 86.86914062 C-114.76210361 73.26499148 -105.24275161 60.74404392 -94 49 C-93.47422363 48.4416748 -92.94844727 47.88334961 -92.40673828 47.30810547 C-69.80401513 23.38327325 -34.46448552 -1.04437835 0 0 Z " fill="#FEF9F0" transform="translate(1017,270)"/>
<path d="M0 0 C32.50043968 1.76632824 61.70001632 18.02137645 85 40 C86.22314431 41.02804153 87.45184283 42.0495327 88.6875 43.0625 C91.82871604 45.73509639 94.47884076 48.6912632 97.140625 51.8359375 C98.38795401 53.28766076 99.6703413 54.70992838 100.984375 56.1015625 C112.84175786 68.6946224 122.05318913 83.41827349 131.2109375 98.015625 C133.97791023 102.41485916 136.80280986 106.77125298 139.6640625 111.109375 C140.05650146 111.70508301 140.44894043 112.30079102 140.85327148 112.91455078 C142.41062155 115.27709422 143.96876391 117.63904348 145.53552246 119.99536133 C146.61866361 121.62457202 147.6961843 123.25751515 148.7734375 124.890625 C149.70808838 126.29876465 149.70808838 126.29876465 150.66162109 127.73535156 C152 130 152 130 152 132 C138.41167718 132.09328404 124.82343238 132.16405845 111.23485279 132.20724869 C104.92297244 132.22799315 98.61131352 132.25606671 92.29956055 132.30175781 C86.19165097 132.34568917 80.08395239 132.36923548 73.97589684 132.37950897 C71.66266248 132.38681643 69.34943774 132.40108181 67.03629494 132.42292023 C32.7117968 132.73365568 2.01323168 123.81329475 -25 102 C-25 101.67 -25 101.34 -25 101 C-20.87978237 100.4181637 -16.75915379 99.8393251 -12.63818359 99.2628479 C-11.08687383 99.04582983 -9.53560429 98.828524 -7.984375 98.6109314 C3.01934485 97.06985436 14.03060339 95.59838313 25.05078125 94.1796875 C27.46460659 93.86732279 29.87842495 93.55490417 32.29223633 93.24243164 C35.89305425 92.77652506 39.49411567 92.31324386 43.09628296 91.85787964 C46.49211849 91.42851234 49.88673106 90.99041828 53.28125 90.55078125 C54.81807182 90.36036758 54.81807182 90.36036758 56.38594055 90.16610718 C57.3317247 90.04208527 58.27750885 89.91806335 59.25195312 89.7902832 C60.07602661 89.6854512 60.9001001 89.5806192 61.74914551 89.47261047 C64.1345356 88.97175165 65.92072059 88.26659597 68 87 C69.55967757 83.88064487 69.31593643 81.44261763 69 78 C67.17484826 75.1873445 67.17484826 75.1873445 64.5625 72.75 C63.18964844 71.33654297 63.18964844 71.33654297 61.7890625 69.89453125 C61.32016602 69.41580566 60.85126953 68.93708008 60.36816406 68.44384766 C58.25671344 66.21559659 56.35512621 63.83283874 54.4375 61.4375 C51.55151207 57.86171531 48.59555196 54.39598682 45.5 51 C42.38541332 47.58260628 39.4081338 44.0947765 36.5 40.5 C32.83752497 35.97614146 29.02753713 31.62744164 25.109375 27.32421875 C23.25373343 25.27957665 21.43243624 23.21215851 19.625 21.125 C16.58972064 17.64293887 13.49218336 14.22110618 10.375 10.8125 C9.91947754 10.31314941 9.46395508 9.81379883 8.99462891 9.29931641 C6.0729873 6.11486481 3.07422942 3.03538537 0 0 Z " fill="#FEF9F0" transform="translate(160,270)"/>
<path d="M0 0 C15.2611029 13.02952653 23.16463079 39.78527053 25 59 C26.57770337 84.34147666 19.39619774 112.18431329 3.4453125 132.40625 C1 135 1 135 -2.5 136.1875 C-6 136 -6 136 -8.48046875 133.83984375 C-27.14600806 112.80132115 -32.49544306 84.1654966 -31 57 C-30.64320168 52.87506334 -30.00730478 49.01164987 -29 45 C-28.77828125 43.98292969 -28.5565625 42.96585938 -28.328125 41.91796875 C-26.43480926 34.24646773 -23.49201971 27.31615112 -20.125 20.1875 C-19.71443359 19.31617432 -19.30386719 18.44484863 -18.88085938 17.54711914 C-9.86086637 -1.00279997 -9.86086637 -1.00279997 0 0 Z " fill="#FFBC5B" transform="translate(592,164)"/>
<path d="M0 0 C0.16435547 1.75763672 0.16435547 1.75763672 0.33203125 3.55078125 C1.19103442 12.2700353 2.09814276 20.68370182 5 29 C5.59941406 30.71896484 5.59941406 30.71896484 6.2109375 32.47265625 C10.70333427 44.72100623 16.95783548 56.49413473 26 66 C23.98638085 70.81277105 20.3375867 73.88962172 16.62890625 77.4453125 C14.04413391 79.87705727 14.04413391 79.87705727 12.08984375 82.2421875 C9.27569619 85.32228746 7.28714532 86.93318184 3.01831055 87.15478516 C1.86113525 87.05472168 0.70395996 86.9546582 -0.48828125 86.8515625 C-1.13684082 86.7968428 -1.78540039 86.74212311 -2.45361328 86.68574524 C-10.58405923 85.94514769 -18.66709357 84.76178162 -26.74398804 83.58795166 C-31.459227 82.9028221 -36.17701526 82.23564457 -40.89453125 81.56640625 C-41.83388016 81.43268616 -42.77322906 81.29896606 -43.74104309 81.16119385 C-52.54757391 79.9117396 -61.36427571 78.74979656 -70.1875 77.625 C-70.85410645 77.53987152 -71.52071289 77.45474304 -72.20751953 77.36703491 C-75.80460781 76.90812282 -79.40207817 76.45232873 -83 76 C-81.38182825 72.59170063 -79.52234036 70.20469242 -76.9375 67.4375 C-73.66981527 63.87703072 -70.53520807 60.2606708 -67.5 56.5 C-63.88617469 52.03291037 -60.1087352 47.76432962 -56.23828125 43.51953125 C-53.97152842 40.96795083 -51.82459913 38.34828468 -49.6875 35.6875 C-41.47932166 25.58731521 -32.61211819 16.26557378 -22.88671875 7.6171875 C-20.08326892 5.16149156 -20.08326892 5.16149156 -18.08203125 2.8828125 C-12.92148808 -2.64725105 -7.00209776 -1.15824174 0 0 Z " fill="#FEF9F0" transform="translate(1053,271)"/>
<path d="M0 0 C4.96542259 -0.89080671 10.13837894 -1.53232614 14.74804688 0.93603516 C19.26117824 4.13477517 23.10461625 8.09528971 27 12 C28.29888566 13.25196961 29.59969922 14.50194187 30.90234375 15.75 C37.32954625 21.97572781 43.34841257 28.35652327 48.89453125 35.390625 C51.16114352 38.19971034 53.55303034 40.84693029 56 43.5 C60.10565205 47.96100987 63.95639445 52.57127145 67.76171875 57.2890625 C70.7450804 60.9024185 73.88402912 64.35950838 77.0546875 67.80859375 C82 73.37951807 82 73.37951807 82 76 C64.07046894 78.6663619 46.11532797 81.03392158 28.125 83.2487793 C27.31036285 83.34924057 26.49572571 83.44970184 25.65640259 83.5532074 C24.05302107 83.75040035 22.44948679 83.94635555 20.84579468 84.14100647 C17.12795691 84.59569051 13.41806605 85.07558633 9.71337891 85.62792969 C9.04019119 85.72608978 8.36700348 85.82424988 7.67341614 85.92538452 C5.87787003 86.19033946 4.08399091 86.46652495 2.2902832 86.74365234 C-2.65986349 87.12932082 -6.61916579 87.08717263 -10.58984375 83.9609375 C-11.36457031 83.10757813 -12.13929687 82.25421875 -12.9375 81.375 C-16.62322732 77.42399062 -20.35692031 73.90898363 -24.6015625 70.5703125 C-26 69 -26 69 -26 65 C-24.4609375 62.7734375 -24.4609375 62.7734375 -22.375 60.375 C-14.71157336 51.10603152 -10.08627634 41.24255303 -6 30 C-5.74162354 29.31381592 -5.48324707 28.62763184 -5.21704102 27.9206543 C-3.09370748 22.00363151 -2.10490258 16.15980877 -1.3125 9.9375 C-1.18294922 8.97650391 -1.05339844 8.01550781 -0.91992188 7.02539062 C-0.60547553 4.68451226 -0.29899053 2.34289368 0 0 Z " fill="#FEF9F0" transform="translate(125,271)"/>
<path d="M0 0 C1.65902344 -0.03867187 1.65902344 -0.03867187 3.3515625 -0.078125 C12.73294638 0.94000968 20.76435336 11.25205035 26.5390625 18.09765625 C28.71322991 20.6465206 30.97912416 23.09947313 33.25 25.5625 C37.39425965 30.1017496 41.30078398 34.78458296 45.16015625 39.56640625 C47.33132827 42.19708557 49.57741357 44.72942424 51.875 47.25 C54.98958668 50.66739372 57.9668662 54.1552235 60.875 57.75 C63.86607225 61.44700713 66.93290645 65.0374563 70.125 68.5625 C70.86105469 69.37976563 71.59710938 70.19703125 72.35546875 71.0390625 C73.56685722 72.36526341 74.79394063 73.67772959 76.05078125 74.9609375 C78.56082686 77.63360579 79.36775953 79.20333922 79.9375 82.875 C79.375 86.25 79.375 86.25 77.875 88.5625 C72.12461428 92.44401036 64.36703122 92.76533654 57.61328125 93.58203125 C56.68110275 93.69956757 55.74892426 93.81710388 54.78849792 93.9382019 C49.64893213 94.58422343 44.50641475 95.20466732 39.36328125 95.8215332 C29.374197 97.03230963 19.46199936 98.33333629 9.57421875 100.2109375 C-15.18984916 104.77709809 -15.18984916 104.77709809 -22.23828125 100.69921875 C-26.17083516 97.70755909 -28.98265465 94.40895777 -31.625 90.25 C-31.625 89.92 -31.625 89.59 -31.625 89.25 C-11.36270811 86.24294672 8.92516064 83.48865003 29.25 80.9375 C30.31468506 80.80285339 31.37937012 80.66820679 32.47631836 80.52947998 C35.5228413 80.14498964 38.56989133 79.7650265 41.6171875 79.38671875 C42.53035736 79.27133255 43.44352722 79.15594635 44.3843689 79.0370636 C48.4043585 78.54377603 52.31518825 78.0974031 56.375 78.25 C50.64630811 70.56313706 44.35364141 63.39447457 38.05371094 56.17871094 C35.45714216 53.19545129 32.88419959 50.19219415 30.3125 47.1875 C29.81959473 46.61354492 29.32668945 46.03958984 28.81884766 45.44824219 C26.35521975 42.57710296 23.90684164 39.69503906 21.484375 36.7890625 C13.93303216 27.77330893 5.90684465 19.34537703 -2.625 11.25 C-3.55699219 10.363125 -4.48898438 9.47625 -5.44921875 8.5625 C-10.95328109 3.72376388 -15.25519717 1.99911309 -22.625 2.25 C-22.625 1.92 -22.625 1.59 -22.625 1.25 C-15.08970825 0.65899673 -7.55816584 0.16013063 0 0 Z " fill="#FEBC5B" transform="translate(150.625,268.75)"/>
<path d="M0 0 C0.71220703 -0.00386719 1.42441406 -0.00773437 2.15820312 -0.01171875 C5.96030929 -0.00468433 9.49237007 0.210292 13.1875 1.125 C10.19488984 5.14954469 6.99210925 8.18680222 3.0625 11.3125 C-5.86068247 18.47263432 -13.51077955 26.50718342 -20.6328125 35.44140625 C-22.78067855 38.08582198 -25.01561173 40.6095497 -27.3125 43.125 C-31.22896423 47.42223158 -34.90013606 51.87799931 -38.5546875 56.3984375 C-40.78042156 59.08626167 -43.08432262 61.67347019 -45.4375 64.25 C-49.48660672 68.69049665 -53.20429397 73.32179326 -56.8125 78.125 C-55.98234375 78.15078125 -55.1521875 78.1765625 -54.296875 78.203125 C-44.3663275 78.66017949 -34.65314078 79.92594581 -24.82519531 81.39697266 C-17.3099071 82.51067926 -9.79219359 83.51789059 -2.25 84.4296875 C-1.34560181 84.53953979 -0.44120361 84.64939209 0.49060059 84.76257324 C4.1227161 85.20257976 7.75491142 85.64114883 11.38891602 86.06530762 C13.93714907 86.3628093 16.48420789 86.6690567 19.03125 86.9765625 C19.79671143 87.06291962 20.56217285 87.14927673 21.35083008 87.23825073 C24.98780692 87.68411723 28.04696003 88.16885109 31.1875 90.125 C30.14927838 91.19086658 29.1066946 92.25248427 28.0625 93.3125 C27.48242188 93.90417969 26.90234375 94.49585938 26.3046875 95.10546875 C25.60601563 95.77191406 24.90734375 96.43835938 24.1875 97.125 C23.27613281 98.02734375 22.36476563 98.9296875 21.42578125 99.859375 C17.5434623 102.57559332 15.01717368 102.66410623 10.5 102.1875 C9.72946289 102.1253833 8.95892578 102.0632666 8.16503906 101.99926758 C-1.10744539 101.16329798 -10.31212352 99.66562793 -19.5078125 98.23828125 C-27.13816773 97.05904453 -34.78396602 96.01643999 -42.4375 95 C-43.70174805 94.82936035 -44.96599609 94.6587207 -46.26855469 94.48291016 C-51.59804538 93.77198389 -56.91773644 93.08564202 -62.2734375 92.60546875 C-63.0576709 92.53150879 -63.8419043 92.45754883 -64.64990234 92.38134766 C-66.61912153 92.20483377 -68.59077076 92.05598206 -70.5625 91.91015625 C-74.98930822 90.84069898 -76.73402801 89.49911793 -79.8125 86.125 C-80.515625 83.21875 -80.515625 83.21875 -79.8125 80.125 C-78.13439856 77.72091141 -76.5430386 75.74631217 -74.5625 73.625 C-73.45273669 72.3857643 -72.34337263 71.14617096 -71.234375 69.90625 C-70.37875977 68.96458984 -70.37875977 68.96458984 -69.50585938 68.00390625 C-66.883121 65.09378593 -64.35061188 62.10883729 -61.8125 59.125 C-60.81298333 57.95791922 -59.81298174 56.79125357 -58.8125 55.625 C-58.07 54.75875 -58.07 54.75875 -57.3125 53.875 C-55.8125 52.125 -54.3125 50.375 -52.8125 48.625 C-52.3172583 48.04717773 -51.8220166 47.46935547 -51.31176758 46.87402344 C-50.3143699 45.71047402 -49.31681197 44.54706196 -48.3190918 43.38378906 C-45.77792699 40.42054935 -43.23981801 37.4547803 -40.70703125 34.484375 C-32.68668329 25.0840461 -24.59174922 15.82948985 -15.875 7.0625 C-15.306604 6.48943115 -14.73820801 5.9163623 -14.15258789 5.32592773 C-9.25698222 0.44953501 -6.7360806 -0.03598974 0 0 Z " fill="#FEBC5B" transform="translate(1026.8125,268.875)"/>
<path d="M0 0 C7.38845249 4.24041561 12.67172168 9.99853279 15.83984375 17.953125 C18.13790822 26.81903052 17.01862719 35.57845603 12.5 43.5 C7.65310679 50.57973165 0.90554297 55.53964686 -7.5 57.5 C-17.58878822 58.6565876 -25.81732903 56.69641555 -33.8125 50.375 C-39.02318805 45.5018464 -43.14135692 38.09339017 -43.703125 30.8984375 C-43.85391034 21.17278295 -42.76179607 14.82574688 -36.4375 7.25 C-26.35755581 -3.13735822 -13.56669109 -6.2053161 0 0 Z " fill="#FFBB5B" transform="translate(64.5,359.5)"/>
<path d="M0 0 C0.62519531 0.33902344 1.25039062 0.67804688 1.89453125 1.02734375 C7.68792058 4.57405922 11.46914075 10.50947952 13.64453125 16.890625 C15.36827149 27.11941327 14.36090205 35.63794131 8.52734375 44.1484375 C3.2878802 50.8123415 -3.63042818 54.68815489 -12 56 C-20.27342369 56.835561 -26.38974478 55.28709533 -33.1640625 50.45703125 C-40.52377795 44.43419295 -45.19842629 37.28815477 -46.25390625 27.69140625 C-46.64435194 19.61799703 -44.32772074 12.65195437 -39.375 6.25 C-29.0313369 -4.88526997 -13.17569707 -7.84329315 0 0 Z " fill="#FFBC5B" transform="translate(1142,361)"/>
<path d="M0 0 C7.58228956 4.37544308 11.83411098 10.23157709 15.4921875 18.0703125 C17.36756997 26.76526758 16.56417539 34.47178976 12.1796875 42.2578125 C6.99716209 49.73639347 0.19770359 55.1475568 -8.82421875 56.9765625 C-17.14019975 58.14828585 -23.61146856 56.53058823 -30.9453125 52.5703125 C-36.4672212 48.12877724 -42.41113379 42.45468947 -43.8203125 35.2578125 C-44.76165768 24.95008275 -44.08025631 16.29041267 -38.02734375 7.71875 C-35.63798877 5.05451347 -33.30041791 3.37891134 -30.2578125 1.5078125 C-29.30777344 0.91484375 -28.35773437 0.321875 -27.37890625 -0.2890625 C-19.2449115 -4.90867478 -8.26654387 -3.87578942 0 0 Z " fill="#FFBB5B" transform="translate(602.8203125,359.7421875)"/>
<path d="M0 0 C1.01900391 0.00676758 1.01900391 0.00676758 2.05859375 0.01367188 C3.70576874 0.0252717 5.35289726 0.04319801 7 0.0625 C7.16548575 5.57869165 6.72823139 10.45783318 5.3125 15.8125 C5.13243408 16.50569336 4.95236816 17.19888672 4.7668457 17.91308594 C0.91779814 32.17807381 -5.67390471 45.39115532 -16 56.0625 C-22.02501762 51.97101239 -27.03940386 47.17082763 -32.09375 41.94140625 C-34.89889705 39.0934097 -37.89912269 36.49978327 -40.92089844 33.88549805 C-44.31963508 30.90541743 -47.59207163 27.79390951 -50.875 24.6875 C-56.23413191 19.63199808 -61.63355175 14.64739372 -67.1796875 9.796875 C-69 8.0625 -69 8.0625 -71 5.0625 C-67.37957458 4.26762101 -63.85604083 3.8274846 -60.16015625 3.5625 C-59.02481445 3.48056396 -57.88947266 3.39862793 -56.71972656 3.31420898 C-55.5128418 3.23114502 -54.30595703 3.14808105 -53.0625 3.0625 C-51.19996582 2.93113647 -51.19996582 2.93113647 -49.29980469 2.79711914 C-40.57324423 2.19734977 -31.84717952 1.72067163 -23.10571289 1.40429688 C-19.33488823 1.25973323 -15.63057858 1.05289723 -11.890625 0.5390625 C-7.84181798 0.04312429 -4.07664663 -0.03639863 0 0 Z " fill="#FEF9F0" transform="translate(103,271.9375)"/>
<path d="M0 0 C7.36481809 0.35022167 14.72932072 0.70647059 22.093503 1.06982994 C25.5152509 1.2384866 28.93706563 1.40528171 32.35913086 1.56738281 C47.62887667 2.29205364 62.8233155 3.12413531 78 5 C77.22438721 5.7748877 76.44877441 6.54977539 75.6496582 7.34814453 C73.96272425 9.0364774 72.28075927 10.72980054 70.60546875 12.4296875 C69.40857422 13.64011719 69.40857422 13.64011719 68.1875 14.875 C67.00220703 16.07769531 67.00220703 16.07769531 65.79296875 17.3046875 C62.97095246 20.0280319 60.05167938 22.59289023 57.09008789 25.16162109 C53.69141942 28.15098841 50.4127303 31.26476679 47.125 34.375 C39.25630529 41.78330208 31.37839962 49.16498978 23 56 C10.60121718 44.72837925 1.88579005 26.64414699 0 10 C-0.02434903 8.26740752 -0.03056611 6.53450243 -0.02246094 4.80175781 C-0.01921814 3.90225403 -0.01597534 3.00275024 -0.01263428 2.07598877 C-0.00846497 1.39091248 -0.00429565 0.70583618 0 0 Z " fill="#FEF9F0" transform="translate(1068,272)"/>
<path d="M0 0 C3.66449097 2.44299398 4.49919532 4.98714515 6 8.9375 C6.26127686 9.60974609 6.52255371 10.28199219 6.79174805 10.97460938 C11.19694706 22.53121259 13.17907398 33.4515245 13.1875 45.8125 C13.19974609 46.74642578 13.21199219 47.68035156 13.22460938 48.64257812 C13.2445118 58.20237625 11.3621665 66.73133934 8.125 75.6875 C7.88136719 76.39455078 7.63773438 77.10160156 7.38671875 77.83007812 C5.70548339 82.55583037 3.59821233 86.70901297 1 91 C-11.37694162 76.00769274 -13.26007238 53.60190652 -12 35 C-10.76172 24.92993254 -7.3399091 7.3399091 0 0 Z " fill="#FFF9F0" transform="translate(588,186)"/>
<path d="M0 0 C2.12493141 -0.02693575 4.24995912 -0.04636628 6.375 -0.0625 C7.55835938 -0.07410156 8.74171875 -0.08570313 9.9609375 -0.09765625 C13 0 13 0 15 1 C15.3554848 3.38812864 15.60688959 5.72324812 15.8125 8.125 C17.82350205 27.00466063 26.17677322 42.51304229 38 57 C36.625 59 36.625 59 35 61 C34.34 61 33.68 61 33 61 C33 61.66 33 62.32 33 63 C31.46875 64.2890625 31.46875 64.2890625 29.5 65.625 C28.8503125 66.07101562 28.200625 66.51703125 27.53125 66.9765625 C26.77328125 67.48316406 26.77328125 67.48316406 26 68 C17.19202662 56.70772644 10.10387442 45.40178638 5 32 C4.68289063 31.17757813 4.36578125 30.35515625 4.0390625 29.5078125 C0.55058843 19.80225594 -0.32235848 10.26174481 0 0 Z " fill="#FEBC5C" transform="translate(1053,271)"/>
<path d="M0 0 C4.95 0 9.9 0 15 0 C16.02382889 22.86551195 5.48342249 46.70556206 -9 64 C-10.32 65.32 -11.64 66.64 -13 68 C-16.3 64.7 -19.6 61.4 -23 58 C-21.16480183 54.32960366 -19.15463787 51.37092184 -16.75 48.0625 C-8.37360978 36.23105949 -3.34295889 23.23947545 -1.3125 8.9375 C-1.11817383 7.6390918 -1.11817383 7.6390918 -0.91992188 6.31445312 C-0.60610144 4.21069392 -0.30200786 2.10548743 0 0 Z " fill="#FEBC5C" transform="translate(110,271)"/>
<path d="M0 0 C4.71878688 1.69164058 7.20582817 3.86048618 10 8 C11.55417619 12.66252858 11.54448802 16.48753327 9.875 21.125 C7.07984174 25.41090933 3.95224283 28.34925239 -1 30 C-6.72719196 30.54030113 -9.55882194 29.6516353 -14 26 C-18.15460088 21.28396657 -19.3667523 18.50546447 -19.27734375 12.31640625 C-18.69135501 7.42216228 -15.86223021 4.76197089 -12.3125 1.625 C-8.01904096 -0.48122519 -4.69600276 -0.69133254 0 0 Z " fill="#FFF8EE" transform="translate(55,372)"/>
<path d="M0 0 C4.62463813 2.29247083 7.27114865 5.49761631 9.0078125 10.33984375 C9.91232613 15.86742705 8.49035415 19.13697008 5.4453125 23.609375 C3.5801326 25.85468667 1.64943608 27.12612481 -0.9921875 28.33984375 C-1.6521875 28.66984375 -2.3121875 28.99984375 -2.9921875 29.33984375 C-8.52207105 30.00342978 -11.80504058 28.9057325 -16.2578125 25.81640625 C-19.49289552 23.06221395 -20.7086915 20.33508144 -21.30078125 16.16796875 C-21.60140454 10.73852996 -20.69101787 7.52536232 -16.9921875 3.33984375 C-11.81446797 -1.23581537 -6.51973567 -2.16046143 0 0 Z " fill="#FFF8EF" transform="translate(594.9921875,372.66015625)"/>
<path d="M0 0 C3.32785277 2.21856851 6.04480635 4.25651599 7.8125 7.875 C8.62295133 12.57714684 8.1852208 16.64036236 6.8125 21.1875 C4.05802305 24.88882841 1.04125924 27.04929952 -3.1875 28.875 C-8.41830282 29.59649004 -11.76256107 28.72662731 -16.1875 25.875 C-20.78424464 20.78130999 -21.64982535 17.47088265 -21.60546875 10.7109375 C-20.94641782 6.23924614 -18.67689844 3.62010015 -15.1875 0.875 C-10.20484604 -2.08283044 -5.31730259 -1.87669503 0 0 Z " fill="#FFF9EF" transform="translate(1133.1875,373.125)"/>
</svg>
